REM DIRINDEX 1\2,1\3
REM DIRNAME cjc122,folder01,folder02
TITLE ""
FILE "DaigakuNyushi150-12.mp3" MP3
  TRACK 01 AUDIO
    TITLE "3:cjc122_251"
    INDEX 01 00:00:00
  TRACK 02 AUDIO
    TITLE "0:"
    INDEX 01 00:01:70
  TRACK 03 AUDIO
    TITLE "2:cjc122_252"
    INDEX 01 00:02:28
  TRACK 04 AUDIO
    TITLE "0:"
    INDEX 01 00:07:01
  TRACK 05 AUDIO
    TITLE "3:cjc122_253"
    INDEX 01 00:07:36
  TRACK 06 AUDIO
    TITLE "0:"
    INDEX 01 00:09:24
  TRACK 07 AUDIO
    TITLE "2:cjc122_254"
    INDEX 01 00:09:56
  TRACK 08 AUDIO
    TITLE "0:"
    INDEX 01 00:12:66
  TRACK 09 AUDIO
    TITLE "3:cjc122_255"
    INDEX 01 00:13:18
  TRACK 10 AUDIO
    TITLE "0:"
    INDEX 01 00:15:30
  TRACK 11 AUDIO
    TITLE "2:cjc122_256"
    INDEX 01 00:15:68
  TRACK 12 AUDIO
    TITLE "0:"
    INDEX 01 00:21:15
  TRACK 13 AUDIO
    TITLE "2:cjc122_257"
    INDEX 01 00:21:45
  TRACK 14 AUDIO
    TITLE "0:"
    INDEX 01 00:27:21
  TRACK 15 AUDIO
    TITLE "3:cjc122_258"
    INDEX 01 00:27:48
  TRACK 16 AUDIO
    TITLE "0:"
    INDEX 01 00:29:63
  TRACK 17 AUDIO
    TITLE "2:cjc122_259"
    INDEX 01 00:30:18
  TRACK 18 AUDIO
    TITLE "0:"
    INDEX 01 00:33:00
  TRACK 19 AUDIO
    TITLE "3:cjc122_260"
    INDEX 01 00:33:30
  TRACK 20 AUDIO
    TITLE "0:"
    INDEX 01 00:35:42
  TRACK 21 AUDIO
    TITLE "2:cjc122_261"
    INDEX 01 00:36:02
  TRACK 22 AUDIO
    TITLE "0:"
    INDEX 01 00:39:50
  TRACK 23 AUDIO
    TITLE "2:cjc122_262"
    INDEX 01 00:40:07
  TRACK 24 AUDIO
    TITLE "0:"
    INDEX 01 00:43:39
  TRACK 25 AUDIO
    TITLE "3:cjc122_263"
    INDEX 01 00:43:69
  TRACK 26 AUDIO
    TITLE "0:"
    INDEX 01 00:46:06
  TRACK 27 AUDIO
    TITLE "2:cjc122_264"
    INDEX 01 00:46:30
  TRACK 28 AUDIO
    TITLE "0:"
    INDEX 01 00:51:49
  TRACK 29 AUDIO
    TITLE "3:cjc122_265"
    INDEX 01 00:52:04
  TRACK 30 AUDIO
    TITLE "0:"
    INDEX 01 00:54:16
  TRACK 31 AUDIO
    TITLE "2:cjc122_266"
    INDEX 01 00:54:43
  TRACK 32 AUDIO
    TITLE "0:"
    INDEX 01 00:57:58
  TRACK 33 AUDIO
    TITLE "3:cjc122_267"
    INDEX 01 00:58:10
  TRACK 34 AUDIO
    TITLE "0:"
    INDEX 01 01:00:14
  TRACK 35 AUDIO
    TITLE "2:cjc122_268"
    INDEX 01 01:00:41
  TRACK 36 AUDIO
    TITLE "0:"
    INDEX 01 01:04:38
  TRACK 37 AUDIO
    TITLE "2:cjc122_269"
    INDEX 01 01:04:73
  TRACK 38 AUDIO
    TITLE "0:"
    INDEX 01 01:08:48
  TRACK 39 AUDIO
    TITLE "2:cjc122_270"
    INDEX 01 01:09:09
  TRACK 40 AUDIO
    TITLE "0:"
    INDEX 01 01:11:50
  TRACK 41 AUDIO
    TITLE "3:cjc122_271"
    INDEX 01 01:12:05
  TRACK 42 AUDIO
    TITLE "0:"
    INDEX 01 01:14:09
  TRACK 43 AUDIO
    TITLE "2:cjc122_272"
    INDEX 01 01:14:47
  TRACK 44 AUDIO
    TITLE "0:"
    INDEX 01 01:17:62
  TRACK 45 AUDIO
    TITLE "2:cjc122_273"
    INDEX 01 01:18:27
  TRACK 46 AUDIO
    TITLE "0:"
    INDEX 01 01:21:13
  TRACK 47 AUDIO
    TITLE "2:cjc122_274"
    INDEX 01 01:21:59
  TRACK 48 AUDIO
    TITLE "0:"
    INDEX 01 01:25:21
  TRACK 49 AUDIO
    TITLE "2:cjc122_275"
    INDEX 01 01:25:53
  TRACK 50 AUDIO
    TITLE "0:"
    INDEX 01 01:28:52
  TRACK 51 AUDIO
    TITLE "3:cjc122_276"
    INDEX 01 01:29:15
  TRACK 52 AUDIO
    TITLE "0:"
    INDEX 01 01:31:03
  TRACK 53 AUDIO
    TITLE "2:cjc122_277"
    INDEX 01 01:31:33
  TRACK 54 AUDIO
    TITLE "0:"
    INDEX 01 01:35:32
  TRACK 55 AUDIO
    TITLE "2:cjc122_278"
    INDEX 01 01:35:65
  TRACK 56 AUDIO
    TITLE "0:"
    INDEX 01 01:39:72
  TRACK 57 AUDIO
    TITLE "2:cjc122_279"
    INDEX 01 01:40:24
  TRACK 58 AUDIO
    TITLE "0:"
    INDEX 01 01:44:43
  TRACK 59 AUDIO
    TITLE "2:cjc122_280"
    INDEX 01 01:44:70
  TRACK 60 AUDIO
    TITLE "0:"
    INDEX 01 01:49:22
